<?xml version="1.0" encoding="UTF-8" standalone="no"?>
<svg
   xmlns:dc="http://purl.org/dc/elements/1.1/"
   xmlns:cc="http://creativecommons.org/ns#"
   xmlns:rdf="http://www.w3.org/1999/02/22-rdf-syntax-ns#"
   xmlns:svg="http://www.w3.org/2000/svg"
   xmlns="http://www.w3.org/2000/svg"
   xmlns:sodipodi="http://sodipodi.sourceforge.net/DTD/sodipodi-0.dtd"
   xmlns:inkscape="http://www.inkscape.org/namespaces/inkscape"
   inkscape:export-ydpi="96"
   inkscape:export-xdpi="96"
   inkscape:export-filename="C:\Users\Lenovo\hFace.png"
   width="648.0108mm"
   height="216.60629mm"
   viewBox="0 0 648.0108 216.60629"
   version="1.1"
   id="svg8"
   sodipodi:docname="hFace.svg"
   inkscape:version="1.0 (4035a4fb49, 2020-05-01)">
  <defs
     id="defs2" />
  <sodipodi:namedview
     id="base"
     pagecolor="#ffffff"
     bordercolor="#666666"
     borderopacity="1.0"
     inkscape:pageopacity="0.0"
     inkscape:pageshadow="2"
     inkscape:zoom="0.24748737"
     inkscape:cx="1347.4839"
     inkscape:cy="476.47442"
     inkscape:document-units="mm"
     inkscape:current-layer="layer1"
     inkscape:document-rotation="0"
     showgrid="false"
     inkscape:snap-global="false"
     inkscape:window-width="1920"
     inkscape:window-height="986"
     inkscape:window-x="-11"
     inkscape:window-y="-11"
     inkscape:window-maximized="1" />
  <metadata
     id="metadata5">
    <rdf:RDF>
      <cc:Work
         rdf:about="">
        <dc:format>image/svg+xml</dc:format>
        <dc:type
           rdf:resource="http://purl.org/dc/dcmitype/StillImage" />
      </cc:Work>
    </rdf:RDF>
  </metadata>
  <g
     inkscape:label="Layer 1"
     inkscape:groupmode="layer"
     id="layer1"
     transform="translate(261.50789,-518.62851)">
    <path
       style="fill:#000000;fill-opacity:1;fill-rule:nonzero;stroke:none;stroke-width:0.380115"
       id="path50"
       d="m 198.79013,537.18558 c -9.49616,12.87913 -18.91242,25.85267 -28.44795,38.68542 -10.83467,14.7963 -21.11227,30.19999 -31.19715,45.80731 -7.76698,12.20478 -16.40805,23.45132 -24.4699,35.33319 -6.20868,9.68567 -13.19346,18.48295 -20.005784,27.47572 -6.10541,7.59149 -11.86613,15.60641 -17.38207,23.8788 -4.84738,7.72325 -10.34825,14.68054 -16.0475,21.3898 -3.33273,3.8608 -1.69589,2.04012 -4.89856,5.47898 0,0 13.06192,-6.68369 13.06192,-6.68369 v 0 c 3.09925,-3.47074 1.50431,-1.64449 4.77686,-5.48975 5.67202,-6.75855 11.0688,-13.83982 15.93436,-21.54839 5.54675,-8.21294 11.324194,-16.17185 17.397934,-23.77375 6.77601,-8.9665 13.62532,-17.84808 19.82313,-27.47471 8.09257,-11.75577 16.50724,-23.16148 24.26738,-35.27822 10.02486,-15.57818 20.22046,-30.98494 31.10461,-45.63153 9.67287,-13.09467 19.25133,-26.30122 29.18926,-39.08111 0,0 -13.10654,6.91193 -13.10654,6.91193 z"
       inkscape:export-xdpi="96"
       inkscape:export-ydpi="96" />
    <path
       d="m 371.94684,626.56071 c -10.54638,6.86405 -21.004,13.77843 -31.59411,20.61776 -12.03291,7.88583 -23.44716,16.09538 -34.64736,24.41345 -8.62595,6.50465 -18.22268,12.49861 -27.17611,18.83116 -6.89532,5.16208 -14.65258,9.85067 -22.21831,14.64345 -6.78063,4.04596 -13.17845,8.31759 -19.30441,12.72643 -5.38347,4.11618 -11.49271,7.82414 -17.82227,11.3999 -3.7013,2.05765 -1.88345,1.0873 -5.44032,2.92008 0,0 14.50649,-3.56213 14.50649,-3.56213 v 0 c 3.44201,-1.84977 1.67069,-0.87646 5.30517,-2.92582 6.29931,-3.60203 12.29294,-7.37608 17.6966,-11.48442 6.16019,-4.37717 12.57658,-8.61894 19.32204,-12.67045 7.52539,-4.77878 15.13219,-9.51231 22.01545,-14.64292 8.98756,-6.26535 18.33283,-12.34413 26.95119,-18.80186 11.13354,-8.30254 22.45672,-16.51373 34.54458,-24.31976 10.74265,-6.97893 21.38041,-14.01748 32.41742,-20.82865 0,0 -14.55605,3.68378 -14.55605,3.68378 z"
       id="path50-9"
       style="fill:#000000;fill-opacity:1;fill-rule:nonzero;stroke:none;stroke-width:0.292443"
       inkscape:export-xdpi="96"
       inkscape:export-ydpi="96" />
    <path
       d="m 372.13444,619.41027 c -10.41045,-6.45948 -20.73331,-12.96631 -31.18693,-19.40252 -11.87783,-7.42104 -23.14497,-15.14671 -34.20082,-22.97449 -8.51479,-6.12126 -17.98783,-11.76193 -26.82587,-17.72123 -6.80646,-4.85782 -14.46374,-9.27007 -21.93195,-13.78035 -6.69324,-3.80749 -13.00861,-7.82733 -19.05563,-11.97631 -5.31409,-3.87358 -11.34458,-7.36298 -17.59258,-10.72799 -3.65359,-1.93638 -1.85916,-1.02321 -5.37019,-2.74796 0,0 14.31952,3.35218 14.31952,3.35218 v 0 c 3.39765,1.74074 1.64916,0.82478 5.2368,2.75336 6.21812,3.38973 12.13451,6.94132 17.46853,10.80752 6.08079,4.11917 12.4145,8.11093 19.07301,11.92363 7.42841,4.49713 14.93717,8.95165 21.73172,13.77985 8.87172,5.89606 18.09656,11.61656 26.60384,17.69365 10.99007,7.81318 22.16729,15.54039 34.09937,22.88632 10.60419,6.56759 21.10487,13.19129 31.99963,19.601 0,0 -14.36845,-3.46666 -14.36845,-3.46666 z"
       id="path50-4"
       style="fill:#000000;fill-opacity:1;fill-rule:nonzero;stroke:none;stroke-width:0.28186"
       inkscape:export-xdpi="96"
       inkscape:export-ydpi="96" />
    <path
       style="fill:#000000;fill-opacity:1;fill-rule:nonzero;stroke:none;stroke-width:0.293613"
       id="path50-9-7"
       d="m -246.9086,626.92998 c 10.57772,6.89866 21.06641,13.8479 31.68798,20.72172 12.06866,7.92559 23.51682,16.17653 34.75029,24.53654 8.65158,6.53745 18.27682,12.56163 27.25685,18.92611 6.9158,5.1881 14.69611,9.90033 22.28432,14.71728 6.80078,4.06636 13.2176,8.35953 19.36176,12.7906 5.39945,4.13694 11.52686,7.86358 17.875228,11.45738 3.712289,2.06802 1.889041,1.09278 5.456472,2.9348 0,0 -14.54959,-3.58009 -14.54959,-3.58009 v 0 c -3.45223,-1.8591 -1.67565,-0.88088 -5.32093,-2.94058 -6.31803,-3.62019 -12.32946,-7.41326 -17.74918,-11.54232 -6.17849,-4.39924 -12.61394,-8.6624 -19.37945,-12.73433 -7.54774,-4.80288 -15.17713,-9.56027 -22.08084,-14.71675 -9.01427,-6.29694 -18.38731,-12.40637 -27.03125,-18.89666 -11.16663,-8.3444 -22.52345,-16.597 -34.64722,-24.44238 -10.77456,-7.01412 -21.44393,-14.08816 -32.51373,-20.93367 0,0 14.59929,3.70235 14.59929,3.70235 z"
       inkscape:export-xdpi="96"
       inkscape:export-ydpi="96" />
    <path
       style="fill:#000000;fill-opacity:1;fill-rule:nonzero;stroke:none;stroke-width:0.282989"
       id="path50-4-0"
       d="m -247.09675,619.74349 c 10.44139,-6.49205 20.79491,-13.03168 31.27959,-19.50034 11.91311,-7.45846 23.21372,-15.22308 34.30241,-23.09034 8.54009,-6.15212 18.04128,-11.82123 26.90557,-17.81057 6.82669,-4.88232 14.50671,-9.31681 21.99712,-13.84984 6.71312,-3.82668 13.04725,-7.86679 19.11223,-12.03669 5.32989,-3.89311 11.37829,-7.4001 17.644849,-10.78208 3.664449,-1.94614 1.86469,-1.02837 5.386145,-2.76182 0,0 -14.362064,3.36909 -14.362064,3.36909 v 0 c -3.40775,1.74951 -1.65406,0.82894 -5.25236,2.76723 -6.23659,3.40683 -12.17055,6.97632 -17.52042,10.86202 -6.09886,4.13994 -12.45139,8.15182 -19.12969,11.98375 -7.45047,4.5198 -14.98154,8.99678 -21.79627,13.84933 -8.89807,5.92579 -18.15032,11.67513 -26.68287,17.78286 -11.02272,7.85257 -22.23316,15.61875 -34.20068,23.00171 -10.6357,6.6007 -21.16757,13.2578 -32.0947,19.69983 0,0 14.41114,-3.48414 14.41114,-3.48414 z"
       inkscape:export-xdpi="96"
       inkscape:export-ydpi="96" />
    <path
       style="fill:#000000;fill-opacity:1;fill-rule:nonzero;stroke:none;stroke-width:0.456603"
       id="path103"
       d="m 24.204769,532.42154 c -12.820629,1.49422 -25.4887451,4.64219 -37.823972,9.06569 -4.424932,1.5868 -8.783825,3.42587 -13.175741,5.13883 -4.551696,2.16835 -9.188893,4.09591 -13.655094,6.50509 -4.916158,2.65187 -9.766795,5.50077 -14.466495,8.66435 -19.853792,13.36463 -36.812819,25.34737 -52.997867,44.21983 -3.71464,4.33149 -7.05478,9.09954 -10.58217,13.64926 -2.85817,4.72984 -5.97873,9.2481 -8.57452,14.18946 -6.5051,12.38317 -12.33336,27.3508 -10.67353,42.45649 1.35933,12.37094 4.71596,15.76544 10.36454,25.77993 8.95021,9.3689 10.9508,12.93199 22.31946,18.62388 16.09695,8.05918 34.838649,10.30093 52.105091,10.18385 6.485067,-0.044 12.952363,-0.81629 19.428545,-1.22441 27.0201265,-3.38218 53.376817,-11.91677 77.967645,-25.77204 17.810069,-10.03476 30.598661,-20.43715 48.03045,-33.16368 12.032319,-11.02385 17.290429,-14.83951 27.506409,-27.9844 8.0536,-10.36253 13.05242,-17.6238 15.40741,-31.85558 2.60552,-15.74588 -0.2534,-21.29608 -3.70606,-36.17274 -6.93231,-14.1964 -8.23098,-19.73281 -19.26357,-30.43745 -11.7439,-11.39484 -22.293098,-16.11712 -37.150137,-20.42406 -8.312464,-2.40973 -16.778284,-4.38251 -25.315454,-5.00992 -10.230306,-0.7519 -20.493204,0.59349 -30.739805,0.89028 -32.140163,5.91208 -35.609484,4.69361 -67.091087,18.37487 -11.473013,4.98597 -22.449555,11.47438 -33.674336,17.21154 0,0 -10.087428,9.53363 -10.087428,9.53363 v 0 c 11.163106,-5.75325 22.074147,-12.26349 33.489321,-17.25977 30.990105,-13.56408 34.628257,-12.38093 66.2923743,-18.19887 10.0101717,-0.22373 20.0408477,-1.46883 30.0305157,-0.67116 13.694117,1.09354 33.137219,6.56819 45.820513,13.6959 5.403324,3.03658 10.42922,7.08906 15.054848,11.60258 10.825425,10.56295 11.967325,15.74343 18.754445,29.71468 3.27455,14.52811 6.02435,19.78907 3.24492,35.09678 -2.45594,13.52619 -7.68939,21.11572 -15.41673,30.96145 -10.129322,12.90633 -15.367139,16.67949 -27.281293,27.4995 -8.424408,8.4292 -5.320264,5.86115 -22.128155,15.4752 -24.400699,13.95713 -50.6083067,22.59432 -77.476855,26.11296 -6.422775,0.43384 -12.835588,1.23036 -19.268329,1.30144 -17.141109,0.18949 -35.176092,-1.90923 -51.158549,-9.90638 -11.176429,-5.59244 -12.907229,-8.83478 -21.691979,-18.0185 -5.42152,-9.65389 -8.61103,-12.80916 -9.80781,-24.73426 -1.47199,-14.66773 4.32825,-29.26883 10.70021,-41.22731 2.58414,-4.84972 5.6854,-9.27662 8.52809,-13.91498 9.857925,-12.54009 11.233713,-15.17519 22.648562,-26.05045 4.318293,-4.11414 8.990819,-7.66987 13.390412,-11.65899 0.329386,-0.29861 0.397755,-0.93401 0.760316,-1.17143 13.449539,-8.80806 13.946782,-8.50833 27.72125,-15.15786 4.318336,-1.6876 8.602225,-3.50686 12.955014,-5.0628 11.886017,-4.24871 24.1175923,-7.23794 36.496197,-8.34262 0,0 14.190428,-12.52781 14.190428,-12.52781 z"
       inkscape:export-xdpi="96"
       inkscape:export-ydpi="96" />
    <path
       style="fill:#000000;fill-opacity:1;fill-rule:nonzero;stroke:none;stroke-width:0.456603"
       id="path133"
       d="m 44.165769,571.72781 c -3.57451,2.87552 -7.192989,5.9075 -9.996002,9.88079 -1.846721,2.61777 -2.301656,4.05257 -3.595543,7.02804 -1.292304,4.77689 -1.67214,10.4977 3.491293,11.96836 3.048,0.86816 5.632766,-0.26312 8.566335,-1.03015 9.936055,-6.23166 20.580511,-12.10355 27.770587,-22.66792 1.017565,-1.49511 3.823664,-6.07434 4.202198,-8.37696 0.168773,-1.02659 -0.253286,-2.0705 -0.379938,-3.10573 -3.350913,-3.04072 -1.297712,-2.07805 -6.447545,-1.77477 0,0 -13.888933,12.4656 -13.888933,12.4656 v 0 c 3.814574,-1.33185 2.213387,-1.39007 4.743381,-0.92309 0.0333,0.64473 0.260355,1.31742 0.0999,1.93425 -0.600934,2.30947 -2.990198,6.08503 -4.146598,7.6814 -1.179189,1.62789 -5.546357,4.97698 -3.768854,4.62962 3.705284,-0.72407 6.609139,-4.33333 10.135626,-5.87379 1.700724,-0.74288 -3.066314,2.30367 -4.599479,3.45549 -2.020122,0.70818 -7.945122,3.24058 -10.104598,1.3618 -2.046257,-1.78032 -0.268343,-6.34995 0.252071,-8.26312 0.537947,-1.08951 1.009216,-2.23023 1.613843,-3.26855 3.187426,-5.47381 7.924526,-9.26931 12.56384,-12.77931 0,0 -16.511536,7.65804 -16.511536,7.65804 z"
       inkscape:export-xdpi="96"
       inkscape:export-ydpi="96" />
    <path
       style="fill:#000000;fill-opacity:1;fill-rule:nonzero;stroke:none;stroke-width:0.456603"
       id="path135"
       d="m -74.444682,659.78622 c 1.79302,8.29668 5.643121,15.35279 12.010238,19.61461 1.693155,1.13328 3.541412,1.89771 5.31212,2.84654 2.338916,0.61514 4.639102,1.50302 7.016751,1.84537 12.692152,1.82772 26.533286,-1.69103 38.347377,-7.11176 3.2723487,-1.50146 6.4058037,-3.4043 9.6087027,-5.10643 26.5448353,-18.41262 16.1087783,-9.7995 32.2731483,-24.08225 0,0 -15.214858,7.20463 -15.214858,7.20463 v 0 c -10.5236569,9.01817 -12.3026579,9.82103 -4.174067,4.64914 -3.1650135,1.75351 -6.2580221,3.70627 -9.4950375,5.2605 -11.4937005,5.5188 -24.9978185,9.21269 -37.4423815,7.63138 -2.255916,-0.28663 -4.445739,-1.08399 -6.668609,-1.62602 -1.682019,-0.86103 -3.43518,-1.54561 -5.046062,-2.58303 -6.027139,-3.88156 -9.717114,-10.44718 -10.936704,-18.40249 0,0 -15.590618,9.85981 -15.590618,9.85981 z"
       inkscape:export-xdpi="96"
       inkscape:export-ydpi="96" />
    <path
       d="m -38.24382,582.60594 c -3.574512,2.87551 -7.192989,5.90749 -9.996004,9.8808 -1.84672,2.61776 -2.301656,4.05256 -3.595543,7.02804 -1.292304,4.77688 -1.672141,10.49768 3.491293,11.96834 3.047999,0.86817 5.632765,-0.26312 8.566332,-1.03014 9.936062,-6.23167 20.580517,-12.10356 27.770592,-22.66792 1.017566,-1.49511 3.8236648,-6.07435 4.2021984,-8.37695 0.1687732,-1.02659 -0.2532864,-2.07051 -0.379938,-3.10574 -3.3509124,-3.04073 -1.2977121,-2.07805 -6.4475444,-1.77478 0,0 -13.888934,12.46562 -13.888934,12.46562 v 0 c 3.814574,-1.33186 2.213389,-1.39008 4.743381,-0.92311 0.0333,0.64475 0.260357,1.31743 0.0999,1.93426 -0.600933,2.30946 -2.990197,6.08503 -4.146597,7.6814 -1.179189,1.62789 -5.546357,4.97698 -3.768853,4.62962 3.705283,-0.72407 6.609137,-4.33333 10.135626,-5.87378 1.700723,-0.74289 -3.066315,2.30366 -4.59948,3.45547 -2.020122,0.70819 -7.945122,3.24059 -10.104599,1.36181 -2.046257,-1.78032 -0.268343,-6.34995 0.252072,-8.26313 0.537947,-1.0895 1.009215,-2.23022 1.613842,-3.26855 3.187427,-5.4738 7.924527,-9.2693 12.56384,-12.77929 0,0 -16.511536,7.65803 -16.511536,7.65803 z"
       id="path133-4"
       style="fill:#000000;fill-opacity:1;fill-rule:nonzero;stroke:none;stroke-width:0.456603"
       inkscape:export-xdpi="96"
       inkscape:export-ydpi="96" />
  </g>
</svg>
